<svg id="Layer_1" data-name="Layer 1" xmlns="http://www.w3.org/2000/svg" viewBox="0 0 143.27 60"><defs><style>.cls-1{fill:#35b458;}.cls-2{fill:#5dae71;}.cls-3{fill:#0c6db5;}.cls-4{fill:#e02528;}</style></defs><title>Artboard 10</title><path class="cls-1" d="M1.21,41.65c.13-.59.24-1.18.39-1.76a14.09,14.09,0,0,1,7.08-9,19.54,19.54,0,0,1,7.81-2.37,33.92,33.92,0,0,1,7.82.09l.74.1c0,.76.07,1.51.1,2.27s.47,1.4,1.21,1.4,1.2-.51,1.25-1.38c0-.55.08-1.1.12-1.65A15.39,15.39,0,0,1,34,33a14.44,14.44,0,0,1-4.7,24,22.44,22.44,0,0,1-7.38,1.51,28.52,28.52,0,0,1-9.41-.9C7,56,3.32,52.56,1.71,47c-.19-.64-.27-1.31-.4-2a1.17,1.17,0,0,0-.09-.22ZM17.38,55.24a17.53,17.53,0,0,0,1.76.27,9.27,9.27,0,0,0,4.24-.62c.51.21,1,.47,1.53.63A1.29,1.29,0,0,0,26.39,55a1.6,1.6,0,0,0,0-1.85,23,23,0,0,0,1.82-2.06,12.91,12.91,0,0,0,2.19-6.83,13.07,13.07,0,0,0-2-8.23,9.86,9.86,0,0,0-10.31-4.6,9.49,9.49,0,0,0-7,5A14.22,14.22,0,0,0,9.77,47.19a10.83,10.83,0,0,0,2.05,4.35c0,.14.06.28.09.43A4.94,4.94,0,0,0,13,54.55,3.56,3.56,0,0,0,17.38,55.24Z"/><path class="cls-1" d="M142.27,11.91a2.16,2.16,0,0,1-1.18,1,72.82,72.82,0,0,1-10.81,3.6l-2.53.66c.09.78.16,1.58.26,2.37a71.86,71.86,0,0,0,2.78,11.59,1.89,1.89,0,0,1,0,1.36,1.61,1.61,0,0,1-2.83-.23l-.44-.75a20.9,20.9,0,0,1-1.94-7.91A28.3,28.3,0,0,1,120.81,31c-.3.3-.59.61-.89.9a1.49,1.49,0,0,1-2.31.14,1.32,1.32,0,0,1,0-1.76c1.16-1.52,2.35-3,3.49-4.56a26.53,26.53,0,0,0,4-8.47.46.46,0,0,0-.1-.36,13.35,13.35,0,0,1-.89-1c-1.61-2.42-3.21-4.84-4.78-7.28A23.44,23.44,0,0,1,118,6.18a1.39,1.39,0,0,1,.45-1.89,1.45,1.45,0,0,1,2,.45,41.06,41.06,0,0,1,3.65,6.12c.54,1,1,2.14,1.51,3.2.23.47.53.9.78,1.33,2-1,4-1.91,5.93-2.81A39.49,39.49,0,0,1,140,9.89a1.67,1.67,0,0,1,2.14,1,.66.66,0,0,0,.1.12Z"/><path class="cls-2" d="M84.29.95c.56.06,1.11.13,1.67.16a74.45,74.45,0,0,1,9.25,1.13c.71.13,1,.49.92,1.08a1.16,1.16,0,0,1-1.28,1c-1-.12-2-.3-3-.39-2.79-.26-5.58-.54-8.38-.72a86.47,86.47,0,0,0-11.21.17c-1.91.13-3.82.2-5.72.4-1.32.13-2.62.45-3.93.63-.92.13-1.86.18-2.79.22a.76.76,0,0,1-.88-.77c0-.47.29-.74.82-.82,1.35-.21,2.7-.48,4.05-.69s2.82-.43,4.24-.58c2.12-.23,4.24-.4,6.37-.6L76.12,1a2.39,2.39,0,0,0,.36-.08Z"/><path class="cls-3" d="M48.86,33.84a8.92,8.92,0,0,1,.67,1.58,2.24,2.24,0,0,1-1.27,2.5,3.4,3.4,0,0,1-3.59-.39,3.09,3.09,0,0,1-.44-3.9,5.84,5.84,0,0,1,3.32-2.43,16.77,16.77,0,0,1,5-.87,21.78,21.78,0,0,1,6.82.62,7.15,7.15,0,0,1,3.42,1.86A6,6,0,0,1,64.27,37c.06,2.82,0,5.64.06,8.46a12,12,0,0,0,.13,1.66c.1.7.38,1,1,1a1.26,1.26,0,0,0,1.45-.72A4.57,4.57,0,0,0,67.25,46c.05-1.08,0-2.16,0-3.26h2.58s0,0,0,.06c0,1.56.07,3.14-.09,4.68a4.09,4.09,0,0,1-3.53,3.86,8.52,8.52,0,0,1-3.82,0,5.29,5.29,0,0,1-3.79-3.16l-.25-.56c-.4.35-.75.69-1.13,1a12.07,12.07,0,0,1-9.12,2.83,6.49,6.49,0,0,1-5.92-5.2A5,5,0,0,1,44.36,41a12.7,12.7,0,0,1,4.83-1.85c1.9-.37,3.83-.63,5.73-1A8.31,8.31,0,0,0,57,37.48a2.06,2.06,0,0,0,.55-3.4,4.46,4.46,0,0,0-2.73-1.27A10.09,10.09,0,0,0,48.86,33.84Zm9.26,5.88-.23.09A19.6,19.6,0,0,1,54,41.23a23.18,23.18,0,0,0-3.25,1.15,2.47,2.47,0,0,0-1.49,2.79,2.63,2.63,0,0,0,2.23,2.27,5.64,5.64,0,0,0,6.13-3.1A8.54,8.54,0,0,0,58.12,39.72Z"/><path class="cls-3" d="M90.8,34h2.3l.18,0v6.56c-.79,0-1.59,0-2.38,0-.07,0-.17-.13-.21-.23-.13-.31-.23-.63-.36-.94a3.22,3.22,0,0,0-1.17-1.5,11.41,11.41,0,0,0-9.08-1.61,3.48,3.48,0,0,0-1.39.7,1.37,1.37,0,0,0,.41,2.52,19.09,19.09,0,0,0,2.8.69c2.46.49,4.95.85,7.38,1.44a6.31,6.31,0,0,1,1.18,12,10.5,10.5,0,0,1-5,.85,24.72,24.72,0,0,1-7.62-1.68,9,9,0,0,0-1.13-.35,1.14,1.14,0,0,0-1.54,1c0,.09,0,.17,0,.29H72.72V46.07h2.66c.05.39.09.76.16,1.13a3.8,3.8,0,0,0,1.69,2.46,10.9,10.9,0,0,0,6.89,1.84A5.68,5.68,0,0,0,87,50.72,1.94,1.94,0,0,0,88,48.62a1.55,1.55,0,0,0-1-1.26,23.26,23.26,0,0,0-2.9-.8c-2.23-.44-4.49-.76-6.7-1.26a9.06,9.06,0,0,1-2.67-1.16,4.91,4.91,0,0,1-2.25-4.94c.21-2.75,1.83-4.38,4.31-5.29a13.64,13.64,0,0,1,5.71-.56A30.38,30.38,0,0,1,89,34.93l.08,0C90.31,35.28,90.58,35,90.8,34Z"/><path class="cls-3" d="M127.52,31.47l.44.75a1.61,1.61,0,0,0,2.83.23c.21.06.42.13.63.18.9.2,1.18,0,1.43-1h2.46v6.57h-2.48c-.07-.18-.15-.38-.21-.58a4.18,4.18,0,0,0-2.16-2.57,11.62,11.62,0,0,0-8.05-1.19,4.37,4.37,0,0,0-1.68.79,1.35,1.35,0,0,0,.34,2.46,20.82,20.82,0,0,0,3.09.76c2.33.46,4.69.81,7,1.35a6.52,6.52,0,0,1,4.5,3.35,6.24,6.24,0,0,1-2.74,8.49,10,10,0,0,1-5.17,1.06,25.44,25.44,0,0,1-8.21-1.81,4.48,4.48,0,0,0-.88-.24,1.08,1.08,0,0,0-1.4,1c0,.1,0,.2-.07.31h-2.42V43.7h2.68c0,.29.07.59.12.89a3.86,3.86,0,0,0,1.77,2.7A11,11,0,0,0,126,49.11a6.12,6.12,0,0,0,2.91-.69,2,2,0,0,0,1.15-1.51,1.69,1.69,0,0,0-1.15-2,21.39,21.39,0,0,0-3.12-.81,59,59,0,0,1-6.91-1.34,6.94,6.94,0,0,1-3.37-2.1,5.92,5.92,0,0,1,1.31-8.15c.25-.18.52-.32.78-.48a1.49,1.49,0,0,0,2.31-.14c.31-.29.6-.6.89-.9A18.47,18.47,0,0,1,127.52,31.47Z"/><path class="cls-3" d="M96.9,47.41V44.55c.36,0,.71,0,1.06,0,1.9-.07,2.83-.94,2.89-2.84.07-2.32.06-4.64.06-7a12.06,12.06,0,0,0-.13-1.92,2.44,2.44,0,0,0-2.62-2.3c-.41,0-.81,0-1.25,0V27.66h10v.52c0,4.08,0,8.15,0,12.23a11.46,11.46,0,0,0,.16,1.91,2.42,2.42,0,0,0,2.56,2.21c.45,0,.9,0,1.36,0a2.65,2.65,0,0,1,0,.26c0,.86,0,1.72,0,2.61Z"/><path class="cls-3" d="M27.75,29.32c0,.55-.09,1.1-.12,1.65,0,.87-.5,1.38-1.25,1.38s-1.17-.51-1.21-1.4-.07-1.51-.1-2.27c0-3,0-6-.09-9.07a14.49,14.49,0,0,0-.27-2,.63.63,0,0,0-.19-.37,9.46,9.46,0,0,1-3.37-6.1c-.42-2.29-.8-4.59-1.19-6.9a1,1,0,0,1,.82-1.1,1.1,1.1,0,0,1,1.4.78c.33,1.55.63,3.12,1,4.67a18.17,18.17,0,0,0,2,6,7.18,7.18,0,0,0,.74,1c.18.19.38.11.6-.05q4.12-3.05,8.26-6.07a19.45,19.45,0,0,1,2-1.21,1.08,1.08,0,0,1,1.51.3,1.18,1.18,0,0,1-.2,1.62c-2.61,2-5.21,4-7.87,5.86a27.28,27.28,0,0,1-2.91,1.61l.89,1.43a25.29,25.29,0,0,0,7.49,7.58c.6.41,1.17.87,1.75,1.31a1.18,1.18,0,0,1,.38,1.62,1.37,1.37,0,0,1-1.64.77A12,12,0,0,1,32,28a20.62,20.62,0,0,1-4.11-4.82l-.17-.26Z"/><path class="cls-3" d="M103.52,8.59A3.65,3.65,0,0,1,99.83,4.9a3.73,3.73,0,0,1,3.64-3.78,3.84,3.84,0,0,1,3.81,3.82A3.71,3.71,0,0,1,103.52,8.59Z"/><path class="cls-1" d="M125.35,10.12a5,5,0,0,1,1.35-3.46,3,3,0,0,1,4.58.21c1.29,1.69,1.26,3.21-.4,5.32a5,5,0,0,1-1.55,1.25,2.6,2.6,0,0,1-3.89-2.09C125.39,10.93,125.38,10.5,125.35,10.12Z"/><path class="cls-3" d="M30.44,9.64a5.53,5.53,0,0,1-.88,3,2.82,2.82,0,0,1-3,1.28,2.73,2.73,0,0,1-2.24-2.29,4.79,4.79,0,0,1,1-4.08,2.67,2.67,0,0,1,2.88-1.12,3,3,0,0,1,2.16,2.37A5.78,5.78,0,0,1,30.44,9.64Z"/><path class="cls-3" d="M11.82,51.54a14.8,14.8,0,0,1,.62-5.36,2.69,2.69,0,0,1,.24-.61.79.79,0,0,1,.9-.38.74.74,0,0,1,.63.69c.15,1.6,1.38,2.3,2.54,3,.45.29,1.26-.35,1.31-.88a2.88,2.88,0,0,1,.35-1.28,22.31,22.31,0,0,1,2-2.64,1.66,1.66,0,0,1,2.86.25,3.11,3.11,0,0,0,.44.48A.85.85,0,0,1,23.86,46c-.74,1.14-1.46,2.28-2.21,3.43l4.73,3.65a1.6,1.6,0,0,1,0,1.85,1.29,1.29,0,0,1-1.49.56c-.52-.16-1-.42-1.53-.63l-2.79-2.17-3.21,2.52A3.56,3.56,0,0,1,13,54.55,4.94,4.94,0,0,1,11.91,52C11.89,51.82,11.85,51.68,11.82,51.54Zm4.46,1.74,1.57-2c-1.69.47-2.57-.63-3.54-1.56C14.26,51.32,15.22,52.29,16.28,53.28Zm5.55-8.16a10,10,0,0,0-2,2.74l.51.35,1.72-2.71Z"/><path class="cls-3" d="M17.81,40.68a5,5,0,0,1-1.69,3.85,2.05,2.05,0,0,1-1.9.37A3,3,0,0,1,12,41.65c.06-.48.07-1,.17-1.43a3.32,3.32,0,0,1,1.43-2.08c2-1.35,3.69-.05,4.08,1.68C17.76,40.12,17.78,40.43,17.81,40.68Z"/><path class="cls-4" d="M102.48,19.89c-.25.4-.5.8-.74,1.21a1.1,1.1,0,0,1-2,0c-.13-.23-.2-.48-.32-.71a1.12,1.12,0,0,0-.27-.38.43.43,0,0,0-.35-.06c-.06,0-.1.2-.09.3.09,1.15.18,2.3.29,3.44.06.63-.07.89-.66,1.11a2.25,2.25,0,0,1-1,.17c-.57-.07-.87-.57-.88-1.32a23.67,23.67,0,0,0-.1-3.19A24.5,24.5,0,0,1,96.2,17,23.18,23.18,0,0,0,96,12.64a1.27,1.27,0,0,1,.75-1.31,1.16,1.16,0,0,1,1.43.53,4.1,4.1,0,0,1,.42,1,16.28,16.28,0,0,0,1.62,3.9,1.67,1.67,0,0,0,.31.31c.11-.12.28-.23.32-.37.2-.67.33-1.36.54-2,.33-1,.65-2,1.07-3,.31-.73.55-.79,1.37-.65a1.12,1.12,0,0,1,.84,1.18c0,1,0,2,0,3s.23,2.29.33,3.43c.07.8.13,1.59.17,2.39s.07,1.81.15,2.71a.67.67,0,0,1-.36.73c-.92.45-1.8.42-2-.79a13.08,13.08,0,0,1-.41-3.21,3.37,3.37,0,0,0,0-.56Z"/><path class="cls-4" d="M81.4,25.67a3.66,3.66,0,0,1-2.8-1.36,1.58,1.58,0,0,1-.3-.71c-.13-.64-.23-1.29-.34-1.93a.39.39,0,0,1,0-.17,10.14,10.14,0,0,0,.13-3.86c-.07-1.07-.15-2.14-.24-3.21a1.79,1.79,0,0,1,.64-1.56,4.89,4.89,0,0,1,5.47-1,3.22,3.22,0,0,1,1.84,1.89,1.56,1.56,0,0,1,0,1,1.6,1.6,0,0,1-2.61.46,4.77,4.77,0,0,1-.58-.82,1,1,0,0,0-1.09-.53.93.93,0,0,0-.71,1c.11,1.19.26,2.37.36,3.56a14.15,14.15,0,0,1,0,1.6c0,.82-.06,1.63-.1,2.45a.9.9,0,0,0,.65,1,.89.89,0,0,0,1.11-.46,3.91,3.91,0,0,0,.34-.89c.17-.65.48-1,1.14-1a4.78,4.78,0,0,1,1.51.32.7.7,0,0,1,.4.94C85.62,24.77,84.11,25.83,81.4,25.67Z"/><path class="cls-4" d="M90.07,23.72a7.48,7.48,0,0,1-.46,1.15,1.26,1.26,0,0,1-2.23-.29.71.71,0,0,1,0-.42c.52-2.14,1.08-4.27,1.57-6.41.29-1.26.47-2.55.74-3.82a12,12,0,0,1,.5-1.63,1.16,1.16,0,0,1,1.86-.52,2.47,2.47,0,0,1,.85,1.44c.32,1.22.57,2.47.92,3.68.62,2.18,1.3,4.35,2,6.52a1.15,1.15,0,0,1-.43,1.42,1.16,1.16,0,0,1-1.56-.35A4.7,4.7,0,0,1,93.27,23c-.09-.46-.3-.72-.75-.75A10.52,10.52,0,0,0,91,22.22C90.34,22.26,90,22.79,90.07,23.72Zm2-3.74a6.26,6.26,0,0,0-.2-1.13c-.06-.16-.31-.29-.49-.35s-.25.21-.3.35a9.51,9.51,0,0,0-.3,1.22c0,.11.07.34.14.35a1.71,1.71,0,0,0,.78,0C91.9,20.35,92,20.1,92.1,20Z"/><path class="cls-4" d="M109.76,10.83c.49.07,1,.14,1.47.22a1.83,1.83,0,0,1,1.4,1.07,6,6,0,0,1,.44,3.84,2.81,2.81,0,0,1-2.51,2.18c-.52.07-1,.17-1.55.27a.54.54,0,0,0-.48.65,18.4,18.4,0,0,0,.33,4.17,1.15,1.15,0,0,1-1,1.34c-.82.13-1.38-.22-1.44-1-.07-1-.05-2-.09-3-.05-1.53-.17-3.06-.17-4.58,0-1.34.1-2.68.19-4,0-.51.23-.92.85-1,.85-.07,1.69-.19,2.54-.29Zm1.13,4.33c0-.26,0-.52,0-.79s0-.52,0-.79a1,1,0,0,0-.77-1,5.38,5.38,0,0,0-1.42,0c-.12,0-.3.27-.3.41,0,1.06,0,2.12,0,3.19a.54.54,0,0,0,.59.56C110,16.8,110.91,16.65,110.89,15.16Z"/><path class="cls-4" d="M46.07,27.22,45.75,27a1.35,1.35,0,0,1-.81-1.38c0-.45.12-.9.13-1.35,0-1.27,0-2.53,0-3.8-.09-2-.22-4-.34-6.06a1.08,1.08,0,0,1,.7-1.11,4.48,4.48,0,0,1,1.18-.3c.78-.08,1.57-.11,2.36-.16a2.83,2.83,0,0,1,2.5,1.19,4.44,4.44,0,0,1,.93,3,19,19,0,0,0,.2,4.88,4.87,4.87,0,0,1-.08,2.41,3.15,3.15,0,0,1-2.67,2.4c-1,.19-2,.3-2.94.45a.94.94,0,0,0-.19.07Zm3.69-8.91h0c0-.64,0-1.29-.09-1.92a1,1,0,0,0-.81-.94,3.8,3.8,0,0,0-1.16-.06c-.31,0-.46.28-.41.61s.05.43.06.65c0,1,.06,1.95.12,2.92,0,.55.2,1.09.19,1.63,0,1.13-.11,2.27-.19,3.4a.48.48,0,0,0,.42.53,1.45,1.45,0,0,0,1.88-1.36c.06-1.16.07-2.33.06-3.5C49.86,19.62,49.79,19,49.76,18.31Z"/><path class="cls-4" d="M56.32,25.11c0,1-.47,1.62-1.25,1.76a1.14,1.14,0,0,1-1.31-1.43q.88-3.54,1.71-7.09c.35-1.47.66-3,1-4.43.11-.47.32-.88.89-.93a1.33,1.33,0,0,1,1.41.67,7.32,7.32,0,0,1,.59,1.49c.55,2,1,4.09,1.6,6.12.34,1.23.76,2.44,1.15,3.66a1.14,1.14,0,0,1-.41,1.35,1.28,1.28,0,0,1-1.49-.2,2.76,2.76,0,0,1-.63-1.55c-.09-.57-.26-.74-.84-.81-.29,0-.58,0-.87-.06C56.79,23.61,56.37,24,56.32,25.11Zm.76-3.56c.09.11.19.33.35.39.36.14.92-.06.92-.34a5.75,5.75,0,0,0-.17-1.4c0-.11-.29-.21-.46-.23s-.21.17-.25.29C57.33,20.64,57.23,21,57.08,21.55Z"/><path class="cls-4" d="M68.32,25.14a1.26,1.26,0,0,1-1.38,1.21A1.41,1.41,0,0,1,65.57,25c0-.95-.06-1.89-.13-2.84a17.3,17.3,0,0,1-.21-2,3.78,3.78,0,0,0-.6-1.91c-.74-1.49-1.48-3-2.21-4.47-.15-.3-.39-.65-.07-1a1.45,1.45,0,0,1,1.36-.44,1.72,1.72,0,0,1,1.14,1.12c.36.73.71,1.47,1.09,2.19.07.13.23.3.35.29a.53.53,0,0,0,.38-.29c.19-.45.31-.94.51-1.39a10.86,10.86,0,0,1,1-1.83,1.27,1.27,0,0,1,1.69-.3.72.72,0,0,1,.38,1c-.64,1.63-1.24,3.27-1.94,4.87a5.29,5.29,0,0,0-.37,3C68.11,22.44,68.19,23.79,68.32,25.14Z"/></svg>